<svg width="72" height="72" viewBox="0 0 24 24" fill="none" xmlns="http://www.w3.org/2000/svg" data-reactroot="">
<path stroke-linejoin="round" stroke-linecap="round" stroke-miterlimit="10" stroke-width="0" stroke="#221b38" fill="#C4B6FF" d="M20 22H4C2.9 22 2 21.1 2 20V4C2 2.9 2.9 2 4 2H20C21.1 2 22 2.9 22 4V20C22 21.1 21.1 22 20 22Z" transform="translate(2,2)"></path><path stroke-linejoin="round" stroke-linecap="round" stroke-miterlimit="10" stroke-width="1" stroke="#221b38" fill="none" d="M20 22H4C2.9 22 2 21.1 2 20V4C2 2.9 2.9 2 4 2H20C21.1 2 22 2.9 22 4V20C22 21.1 21.1 22 20 22Z"></path>
<path stroke-linejoin="round" stroke-linecap="round" stroke-miterlimit="10" stroke-width="1" stroke="#221b38" d="M6 9H18"></path>
<path stroke-linejoin="round" stroke-linecap="round" stroke-miterlimit="10" stroke-width="1" stroke="#221b38" d="M6 15H18"></path>
</svg>
